<?xml version="1.0" encoding="utf-8"?>
<!-- Generator: Adobe Illustrator 18.0.0, SVG Export Plug-In . SVG Version: 6.00 Build 0)  -->
<!DOCTYPE svg PUBLIC "-//W3C//DTD SVG 1.1//EN" "http://www.w3.org/Graphics/SVG/1.1/DTD/svg11.dtd">
<svg version="1.1" id="Layer_1" xmlns="http://www.w3.org/2000/svg" xmlns:xlink="http://www.w3.org/1999/xlink" x="0px" y="0px"
	 viewBox="0 0 100 100" enable-background="new 0 0 100 100" xml:space="preserve">
<path fill="#0EAA21" d="M51.9,0.2c4.9,1.2,7.8,5.1,11,8.5c8.7,9,17.3,18,25.9,27.1c4,4.2,4.4,9.8,1,14.5
	C79.4,65.2,68.8,80.1,58.3,95c-4.9,6.8-14.1,6.6-18.7-0.4C29.6,79.5,19.7,64.4,9.9,49.3c-3.1-4.8-2.5-10.3,1.6-14.5
	c9.3-9.5,18.7-18.9,27.9-28.4c2.6-2.6,5.2-5.2,8.9-6.2C49.5-0.1,50.5-0.1,51.9,0.2z"/>
</svg>
